# xmcd CD database file
#
# Track frame offsets:
#	182
#	24422
#	49682
#	73542
#	101440
#	116975
#	130737
#	154637
#	180652
#
# Disc length: 2843 seconds
#
# Revision: 0
# Processed by: cddbd v1.5.2PL0 Copyright (c) Steve Scherf et al.
# Submitted via: CDex 1.50
#
DISCID=700b1909
DTITLE=Philippe Laudet Quartet - Beautiful love
DYEAR=1996
DGENRE=Jazz
TTITLE0=1 -  AGAMI, L'OISEAU TROMPETTE
TTITLE1=2 - JAUNE CENDRE
TTITLE2=3 - CITE DES ANGES
TTITLE3=4 - BOSSA POUR SEPTEMBRE
TTITLE4=5 - IL TOMBE DE L'EAU
TTITLE5=6 - SAINT TURBIN
TTITLE6=7 - LA PETITE BLEUE
TTITLE7=8 - LA NUIT DES MEGATROLLS
TTITLE8=9 - BEAUTIFUL LOVE
EXTD=YEAR: 1996
EXTT0=
EXTT1=
EXTT2=
EXTT3=
EXTT4=
EXTT5=
EXTT6=
EXTT7=
EXTT8=
PLAYORDER=
